<?xml version="1.0" standalone="no"?><!DOCTYPE svg PUBLIC "-//W3C//DTD SVG 1.1//EN" "http://www.w3.org/Graphics/SVG/1.1/DTD/svg11.dtd"><svg t="1723021666739" class="icon" viewBox="0 0 1024 1024" version="1.1" xmlns="http://www.w3.org/2000/svg" p-id="13389" xmlns:xlink="http://www.w3.org/1999/xlink" width="36" height="36"><path d="M669.944057 347.18855H357.57157a32.784782 32.784782 0 0 0-34.389632 34.389632 32.784782 32.784782 0 0 0 34.389632 34.389631h312.372487a32.784782 32.784782 0 0 0 34.389632-34.389631 32.784782 32.784782 0 0 0-34.389632-34.389632z m0 347.106015H357.57157a34.389632 34.389632 0 0 0 0 68.779264h312.372487a34.389632 34.389632 0 1 0 0-68.779264z m0-173.553007H357.57157a34.389632 34.389632 0 0 0 0 69.467056h312.372487a34.389632 34.389632 0 0 0 0-69.467056z" fill="#40A8FF" p-id="13390"></path><path d="M79.932611 590.208614a32.899414 32.899414 0 0 0 34.389631-34.389632A398.805095 398.805095 0 0 1 395.744061 173.750175a122.312456 122.312456 0 0 0 232.588542-52.042976 124.031938 124.031938 0 0 0-246.459027-17.42408A473.774492 473.774492 0 0 0 44.969818 555.475086a32.784782 32.784782 0 0 0 34.962793 34.733528zM503.49824 69.549591a53.418561 53.418561 0 0 1 52.042976 52.157608 52.042976 52.042976 0 0 1-104.085952 0A53.418561 53.418561 0 0 1 503.49824 69.549591z m464.947819 597.004005a393.64665 393.64665 0 0 0 13.870485-111.07851 462.196649 462.196649 0 0 0-243.020063-409.580513 34.389632 34.389632 0 1 0-34.389632 59.035534 394.907603 394.907603 0 0 1 207.942639 350.544979A348.137704 348.137704 0 0 1 902.417967 642.136957h-6.877927a121.510032 121.510032 0 1 0 121.3954 121.510032 121.3954 121.3954 0 0 0-48.489381-97.093393z m-72.906019 149.021737a52.042976 52.042976 0 1 1 52.042976-52.042976 53.418561 53.418561 0 0 1-52.042976 52.157608z m-176.99197 83.452173a386.654091 386.654091 0 0 1-204.732941 55.481939A413.707268 413.707268 0 0 1 229.183612 837.011537a131.253761 131.253761 0 0 0 24.302006-72.906019A122.885617 122.885617 0 0 0 132.090218 642.136957a121.510032 121.510032 0 1 0 0 242.905432 175.616385 175.616385 0 0 0 41.611455-6.992559A458.528422 458.528422 0 0 0 513.815129 1023.9765a477.671983 477.671983 0 0 0 239.466469-65.91346 34.389632 34.389632 0 0 0 10.316889-48.604013 32.211622 32.211622 0 0 0-45.050417-10.431521zM132.090218 815.689965a52.042976 52.042976 0 1 1 0-104.085952 52.042976 52.042976 0 0 1 0 104.085952z" fill="#40A8FF" p-id="13391"></path></svg>