<?xml version="1.0" standalone="no"?><!DOCTYPE svg PUBLIC "-//W3C//DTD SVG 1.1//EN" "http://www.w3.org/Graphics/SVG/1.1/DTD/svg11.dtd"><svg t="1723023738719" class="icon" viewBox="0 0 1024 1024" version="1.1" xmlns="http://www.w3.org/2000/svg" p-id="1521" xmlns:xlink="http://www.w3.org/1999/xlink" width="36" height="36"><path d="M213.333333 384a42.666667 42.666667 0 0 1 42.368 37.674667L256 426.666667l-0.170667 426.666666H413.866667a42.666667 42.666667 0 0 1 42.368 37.674667L456.533333 896a42.666667 42.666667 0 0 1-37.674666 42.368L413.866667 938.666667l-161.621334-0.128c-39.338667 3.2-74.112-24.32-80.768-65.749334L170.666667 866.133333V426.666667a42.666667 42.666667 0 0 1 42.666666-42.666667zM810.666667 384a42.666667 42.666667 0 0 1 42.368 37.674667L853.333333 426.666667l-0.170666 443.221333c-3.413333 39.168-36.266667 68.778667-71.936 69.034667L775.253333 938.666667H610.133333a42.666667 42.666667 0 0 1-4.992-85.034667L610.133333 853.333333l157.866667 0.128V426.666667a42.666667 42.666667 0 0 1 37.674667-42.368L810.666667 384z" fill="#049DEE" p-id="1522"></path><path d="M610.133333 558.933333a42.666667 42.666667 0 0 1 42.368 37.674667l0.298667 4.992V896a42.666667 42.666667 0 0 1-85.034667 4.992L567.466667 896v-251.733333h-110.976L456.533333 896a42.666667 42.666667 0 0 1-37.674666 42.368L413.866667 938.666667a42.666667 42.666667 0 0 1-42.368-37.674667L371.2 896v-294.4a42.666667 42.666667 0 0 1 37.674667-42.368L413.866667 558.933333h196.266666z" fill="#049DEE" p-id="1523"></path><path d="M481.834667 97.834667a42.666667 42.666667 0 0 1 63.872 56.32l-3.541334 4.010666-384 384a42.666667 42.666667 0 0 1-63.872-56.32l3.541334-4.010666 384-384z" fill="#03CD8E" p-id="1524"></path><path d="M481.834667 97.834667a42.666667 42.666667 0 0 1 56.32-3.541334l4.010666 3.541334 384 384a42.666667 42.666667 0 0 1-56.32 63.872l-4.010666-3.541334-384-384a42.666667 42.666667 0 0 1 0-60.330666z" fill="#03CD8E" p-id="1525"></path></svg>