<?xml version="1.0" standalone="no"?><!DOCTYPE svg PUBLIC "-//W3C//DTD SVG 1.1//EN" "http://www.w3.org/Graphics/SVG/1.1/DTD/svg11.dtd"><svg t="1723020777695" class="icon" viewBox="0 0 1024 1024" version="1.1" xmlns="http://www.w3.org/2000/svg" p-id="3360" xmlns:xlink="http://www.w3.org/1999/xlink" width="36" height="36"><path d="M757.248 961.566118a30.117647 30.117647 0 1 1-28.912941-52.856471A451.584 451.584 0 0 0 963.764706 512c0-249.494588-202.270118-451.764706-451.764706-451.764706C262.505412 60.235294 60.235294 262.505412 60.235294 512a451.584 451.584 0 0 0 235.971765 397.010824 30.117647 30.117647 0 0 1-28.822588 52.886588A511.819294 511.819294 0 0 1 0 512C0 229.225412 229.225412 0 512 0s512 229.225412 512 512a511.819294 511.819294 0 0 1-266.752 449.566118z m-66.288941-135.529412a60.235294 60.235294 0 1 1-59.723294-104.598588 240.941176 240.941176 0 1 0-239.736471-0.722824 60.235294 60.235294 0 0 1-60.325647 104.267294A361.231059 361.231059 0 0 1 150.588235 512c0-199.589647 161.822118-361.411765 361.411765-361.411765s361.411765 161.822118 361.411765 361.411765c0 131.222588-70.595765 250.187294-182.452706 314.066824zM512 632.470588a120.470588 120.470588 0 1 1 0-240.941176 120.470588 120.470588 0 0 1 0 240.941176z m26.925176 144.233412l101.857883 203.715765A30.117647 30.117647 0 0 1 613.857882 1024h-203.715764a30.117647 30.117647 0 0 1-26.925177-43.580235l101.857883-203.715765a30.117647 30.117647 0 0 1 53.850352 0z" fill="#3D9DFC" p-id="3361"></path></svg>
