<?xml version="1.0" standalone="no"?><!DOCTYPE svg PUBLIC "-//W3C//DTD SVG 1.1//EN" "http://www.w3.org/Graphics/SVG/1.1/DTD/svg11.dtd"><svg t="1723021265349" class="icon" viewBox="0 0 1024 1024" version="1.1" xmlns="http://www.w3.org/2000/svg" p-id="6380" xmlns:xlink="http://www.w3.org/1999/xlink" width="36" height="36"><path d="M475.205818 41.704727l216.576 74.24-142.987636 146.990546-59.810909-20.503273-156.788364-53.713455 143.010909-147.013818z m223.697455 307.805091l-139.473455 143.429818v-216.576l139.473455-143.429818v216.576z m-384.837818 92.066909l234.356363 80.337455a8.331636 8.331636 0 0 0 2.629818 0.418909 8.098909 8.098909 0 0 0 4.375273-1.442909c0.162909-0.093091 0.349091 0 0.512-0.162909l0.372364-0.465455a6.562909 6.562909 0 0 0 0.651636-0.442182l156.253091-160.628363a8.773818 8.773818 0 0 0 2.443636-6.074182V112.174545a8.727273 8.727273 0 0 0-0.232727-1.256727c0-0.232727 0.069818-0.488727 0-0.744727-0.093091-0.232727-0.232727-0.302545-0.279273-0.488727a8.471273 8.471273 0 0 0-1.396363-2.792728c-0.186182-0.209455-0.256-0.465455-0.442182-0.628363a8.308364 8.308364 0 0 0-3.165091-2.094546c-0.093091 0-0.139636-0.139636-0.232727-0.186182l-234.309818-80.290909a8.331636 8.331636 0 0 0-8.587637 2.094546l-156.229818 160.605091c-0.279273 0.302545-0.349091 0.744727-0.605091 1.070545a8.354909 8.354909 0 0 0-1.117091 1.978182 8.145455 8.145455 0 0 0-0.442182 1.792 8.983273 8.983273 0 0 0-0.279272 1.233455v240.965818a8.610909 8.610909 0 0 0 5.725091 8.145454zM937.425455 840.029091l-139.496728 143.429818v-216.599273l139.496728-143.429818v216.599273z m-150.109091-86.574546l-59.834182-20.48-156.765091-53.76 142.987636-147.013818 216.576 74.24-142.964363 147.013818z m166.609454-152.040727v-0.744727c0-0.232727-0.209455-0.325818-0.232727-0.512a8.424727 8.424727 0 0 0-1.442909-2.792727 5.748364 5.748364 0 0 0-0.418909-0.605091 8.075636 8.075636 0 0 0-3.095273-2.094546c-0.093091 0-0.139636-0.139636-0.232727-0.162909l-234.356364-80.337454a8.331636 8.331636 0 0 0-8.564364 2.094545l-156.276363 160.628364a7.214545 7.214545 0 0 0-0.605091 1.070545 8.052364 8.052364 0 0 0-1.140364 1.978182 8.308364 8.308364 0 0 0-0.418909 1.792 7.936 7.936 0 0 0-0.302545 1.256727V923.927273a8.610909 8.610909 0 0 0 5.725091 8.145454l234.356363 80.407273c0.837818 0.232727 1.722182 0.372364 2.56 0.372364a8.261818 8.261818 0 0 0 4.398546-1.466182c0.139636-0.116364 0.349091 0 0.512-0.162909 0.162909-0.162909 0.232727-0.325818 0.372363-0.465455 0.162909-0.116364 0.465455-0.232727 0.651637-0.442182l156.299636-160.628363a8.750545 8.750545 0 0 0 2.443636-6.097455V602.647273a11.124364 11.124364 0 0 0-0.232727-1.233455zM460.381091 840.029091l-139.496727 143.429818v-216.599273l139.496727-143.429818v216.599273z m-150.109091-86.574546l-59.810909-20.48-156.765091-53.76 142.964364-147.013818 216.599272 74.24-142.987636 147.013818z m166.632727-152.785454c0-0.186182-0.232727-0.325818-0.279272-0.512a8.541091 8.541091 0 0 0-1.396364-2.792727c-0.162909-0.186182-0.256-0.418909-0.442182-0.605091a8.098909 8.098909 0 0 0-3.072-2.094546c-0.093091 0-0.162909-0.139636-0.232727-0.162909l-234.356364-80.337454a8.354909 8.354909 0 0 0-8.610909 2.094545l-156.253091 160.628364a8.983273 8.983273 0 0 0-0.605091 1.070545 8.029091 8.029091 0 0 0-1.117091 1.978182 7.773091 7.773091 0 0 0-0.418909 1.792 6.702545 6.702545 0 0 0-0.302545 1.256727V923.927273a8.610909 8.610909 0 0 0 5.725091 8.145454l234.356363 80.407273a8.634182 8.634182 0 0 0 2.653091 0.442182 8.145455 8.145455 0 0 0 4.352-1.466182c0.162909-0.093091 0.372364 0 0.535273-0.162909l0.372364-0.465455a5.492364 5.492364 0 0 0 0.628363-0.418909l156.229818-160.721454a8.704 8.704 0 0 0 2.443637-6.097455V602.647273a8.471273 8.471273 0 0 0-0.232727-1.233455c-0.046545-0.232727 0.069818-0.488727 0-0.744727z" fill="#5285EC" p-id="6381"></path></svg>
