<?xml version="1.0" standalone="no"?><!DOCTYPE svg PUBLIC "-//W3C//DTD SVG 1.1//EN" "http://www.w3.org/Graphics/SVG/1.1/DTD/svg11.dtd"><svg t="1723021387761" class="icon" viewBox="0 0 1024 1024" version="1.1" xmlns="http://www.w3.org/2000/svg" p-id="10193" width="36" height="36" xmlns:xlink="http://www.w3.org/1999/xlink"><path d="M916.992 868.864h-39.424V398.336c0-38.4-31.232-69.632-69.632-69.632h-182.272V136.704c0-39.936-32.256-72.192-72.192-72.192H217.6c-39.936 0-72.192 32.256-72.192 72.192v732.16h-33.28c-16.384 0-29.696 13.312-29.696 29.696s13.312 29.696 29.696 29.696h803.84c16.384 0 29.696-13.312 29.696-29.696s-12.8-29.696-28.672-29.696z m-351.744 0H205.312V148.992c0-13.312 10.752-24.064 24.064-24.064h311.808c13.312 0 24.064 10.752 24.064 24.064v719.872z m251.904 0h-192V389.12h164.352c15.36 0 27.648 12.288 27.648 27.648v452.096z" fill="#0972E7" p-id="10194"></path><path d="M489.984 796.16H278.016c-25.088 0-45.568-20.48-45.568-45.568V219.136c0-25.088 20.48-45.568 45.568-45.568h211.456c25.088 0 45.568 20.48 45.568 45.568v531.456c0.512 25.088-19.968 45.568-45.056 45.568zM778.752 848.384h-114.688c-12.8 0-22.528-10.24-22.528-22.528V432.128c0-12.8 10.24-22.528 22.528-22.528h114.688c12.8 0 22.528 10.24 22.528 22.528v393.728c0.512 12.288-9.728 22.528-22.528 22.528z" fill="#CAE4FF" p-id="10195"></path><path d="M766.976 532.992H675.84c-14.336 0-26.624 11.776-26.624 26.624 0 14.336 11.776 26.624 26.624 26.624h91.136c14.336 0 26.624-11.776 26.624-26.624 0-14.848-11.776-26.624-26.624-26.624z m2.56 139.264h-96.256c-13.312 0-24.064 10.752-24.064 24.064v4.608c0 13.312 10.752 24.064 24.064 24.064h96.256c13.312 0 24.064-10.752 24.064-24.064v-4.608c0-13.312-10.752-24.064-24.064-24.064z m-271.36-105.984H425.984c-13.312 0-24.064 10.752-24.064 24.064v4.608c0 13.312 10.752 24.064 24.064 24.064h72.192c13.312 0 24.064-10.752 24.064-24.064v-4.608c0-13.312-10.752-24.064-24.064-24.064z m-156.16 0h-71.68c-13.312 0-24.064 10.752-24.064 24.064v4.608c0 13.312 10.752 24.064 24.064 24.064h72.192c13.312 0 24.064-10.752 24.064-24.064v-4.608c-0.512-13.312-11.264-24.064-24.576-24.064zM499.712 419.84H427.52c-13.312 0-24.064 10.752-24.064 24.064v4.608c0 13.312 10.752 24.064 24.064 24.064h72.192c13.312 0 24.064-10.752 24.064-24.064v-4.608c0-13.312-10.752-24.064-24.064-24.064z m-156.16 0h-71.68c-13.312 0-24.064 10.752-24.064 24.064v4.608c0 13.312 10.752 24.064 24.064 24.064h72.192c13.312 0 24.064-10.752 24.064-24.064v-4.608c-0.512-13.312-11.776-24.064-24.576-24.064z m156.16-145.92H427.52c-13.312 0-24.064 10.752-24.064 24.064v4.608c0 13.312 10.752 24.064 24.064 24.064h72.192c13.312 0 24.064-10.752 24.064-24.064v-4.608c0-13.824-10.752-24.064-24.064-24.064z m-156.16 0h-71.68c-13.312 0-24.064 10.752-24.064 24.064v4.608c0 13.312 10.752 24.064 24.064 24.064h72.192c13.312 0 24.064-10.752 24.064-24.064v-4.608c-0.512-13.824-11.776-24.064-24.576-24.064z" fill="#0972E7" p-id="10196"></path></svg>