<?xml version="1.0" standalone="no"?><!DOCTYPE svg PUBLIC "-//W3C//DTD SVG 1.1//EN" "http://www.w3.org/Graphics/SVG/1.1/DTD/svg11.dtd"><svg t="1723021049605" class="icon" viewBox="0 0 1024 1024" version="1.1" xmlns="http://www.w3.org/2000/svg" p-id="5348" xmlns:xlink="http://www.w3.org/1999/xlink" width="36" height="36"><path d="M928 576h-64V128c0-70.4-57.6-128-128-128H288C217.6 0 160 57.6 160 128v448H96c-38.4 0-64 25.6-64 64v320c0 38.4 25.6 64 64 64h832c38.4 0 64-25.6 64-64v-320c0-38.4-25.6-64-64-64zM352 128h320v64H352V128z m0 192h320v64H352V320z m320 512H352v-64h320v64zM224 576V512h576v64H224z" fill="#6266EA" p-id="5349"></path></svg>
