<svg t="1721189603340" class="icon" viewBox="0 0 1024 1024" version="1.1" xmlns="http://www.w3.org/2000/svg" p-id="3999" width="200" height="200"><path d="M608.141466 929.28c-107.52 29.184-222.72 7.168-311.808-60.416 49.664-75.264 29.696-176.128-44.032-227.328-73.216-50.176-173.056-31.232-223.232 41.984-0.512 0.512-1.024 1.024-1.024 2.048-50.176 74.752-31.232 175.616 42.496 227.328 48.64 33.28 111.104 37.376 163.328 10.752 110.08 90.624 257.536 121.856 395.264 83.968 21.504-6.656 33.28-29.696 27.136-51.2-6.656-20.48-27.648-32.768-48.64-28.16l0.512 1.024zM512.909466 0C427.917466 0 357.773466 67.072 352.653466 152.576 219.021466 204.8 118.669466 318.464 82.829466 457.728c-5.12 22.016 7.168 44.032 28.672 50.176 21.504 5.12 43.52-7.68 49.664-29.184 27.648-109.056 103.936-199.168 206.848-244.224 33.792 72.704 116.736 109.568 193.536 85.504 76.8-24.576 124.416-101.376 112.128-181.248C662.413466 59.392 594.317466 0 513.421466 0h-0.512z m439.296 642.048c22.528-141.824-23.04-286.208-123.392-389.12-13.824-17.408-39.424-19.968-56.832-6.144-7.168 5.632-12.288 13.824-14.336 23.04-3.584 15.36 2.048 31.232 13.824 40.96 79.872 80.384 118.272 192.512 105.472 305.152-82.432-7.68-157.696 47.104-175.104 128.512-18.432 80.896 26.112 163.328 103.936 192 77.824 28.16 164.352-6.656 201.216-80.896 37.376-74.24 14.336-164.864-54.272-211.968v-1.536h-0.512z" fill="#87CEFA" p-id="4000"></path></svg>