<?xml version="1.0" standalone="no"?><!DOCTYPE svg PUBLIC "-//W3C//DTD SVG 1.1//EN" "http://www.w3.org/Graphics/SVG/1.1/DTD/svg11.dtd"><svg t="1723021503927" class="icon" viewBox="0 0 1024 1024" version="1.1" xmlns="http://www.w3.org/2000/svg" p-id="11242" xmlns:xlink="http://www.w3.org/1999/xlink" width="36" height="36"><path d="M170.666667 392.533333a85.333333 85.333333 0 0 1 85.333333-85.333333h375.466667a85.333333 85.333333 0 0 1 85.333333 85.333333V768a85.333333 85.333333 0 0 1-85.333333 85.333333H256a85.333333 85.333333 0 0 1-85.333333-85.333333V392.533333z" fill="#4370FE" p-id="11243"></path><path d="M392.533333 170.666667a85.333333 85.333333 0 0 0-85.333333 85.333333v5.674667h369.792a85.333333 85.333333 0 0 1 85.333333 85.333333V716.8H768a85.333333 85.333333 0 0 0 85.333333-85.333333V256a85.333333 85.333333 0 0 0-85.333333-85.333333H392.533333z" fill="#7F9EFE" p-id="11244"></path><path d="M467.925333 671.274667a21.333333 21.333333 0 1 0 42.666667 0v-143.872l58.496 36.010666a21.333333 21.333333 0 1 0 22.357333-36.309333L500.48 471.04a21.333333 21.333333 0 0 0-32.512 18.176v182.016z m-48.384-182.016a21.333333 21.333333 0 1 0-42.666666 0v143.872l-58.453334-36.010667a21.333333 21.333333 0 0 0-22.4 36.309333l91.008 56.021334a21.333333 21.333333 0 0 0 32.512-18.176v-182.016z" fill="#FFFFFF" p-id="11245"></path></svg>